Coordinates
version=1
nRows=7
nColumns=63
inDegrees=yes

Units are S.I. units (second, meters, Newtons, ...)
If the header above contains a line with 'inDegrees', this indicates whether rotational values are in degrees (yes) or radians (no).

endheader
time	pelvis_tilt	pelvis_list	pelvis_rotation	pelvis_tx	pelvis_ty	pelvis_tz	hip_flexion_r	hip_adduction_r	hip_rotation_r	knee_angle_r	knee_angle_r_beta	ankle_angle_r	subtalar_angle_r	mtp_angle_r	hip_flexion_l	hip_adduction_l	hip_rotation_l	knee_angle_l	knee_angle_l_beta	ankle_angle_l	subtalar_angle_l	mtp_angle_l	L5_S1_Flex_Ext	L5_S1_Lat_Bending	L5_S1_axial_rotation	L4_L5_Flex_Ext	L4_L5_Lat_Bending	L4_L5_axial_rotation	L3_L4_Flex_Ext	L3_L4_Lat_Bending	L3_L4_axial_rotation	L2_L3_Flex_Ext	L2_L3_Lat_Bending	L2_L3_axial_rotation	L1_L2_Flex_Ext	L1_L2_Lat_Bending	L1_L2_axial_rotation	L1_T12_Flex_Ext	L1_T12_Lat_Bending	L1_T12_axial_rotation	Abs_r3	Abs_r2	Abs_r1	Abs_t1	Abs_t2	neck_flexion	neck_bending	neck_rotation	arm_flex_r	arm_add_r	arm_rot_r	elbow_flex_r	pro_sup_r	wrist_flex_r	wrist_dev_r	arm_flex_l	arm_add_l	arm_rot_l	elbow_flex_l	pro_sup_l	wrist_flex_l	wrist_dev_l
      1.28333333	     -1.56443091	    -10.71000045	     85.53993361	      0.10966345	      1.00624466	      0.35529291	     19.37494083	      0.43658337	    -10.08424137	     17.88719307	      0.31219041	     41.65007972	     14.74180787	      0.00000000	     18.31309367	     -1.58815759	    -10.73474218	     16.63836199	      0.29039420	     40.30012210	     16.93350313	      0.00000000	     -0.24540184	      0.36937937	     -0.24082293	     -0.45573575	      0.49127456	     -0.25587436	     -0.40317068	      0.89810900	     -0.25587436	     -0.28046976	      0.89810900	     -0.21072006	     -0.22788015	      0.75323841	     -0.19566863	     -0.14022261	      0.57216864	     -0.18061719	     -1.75288078	      4.17849331	     -1.33938486	      0.00000000	      0.00000000	     17.70018970	     -3.04997062	      0.99867183	      9.95787909	    -12.53036831	      0.84208084	     79.71337292	     57.23284758	     -1.80874371	     18.04873763	     13.54764605	     -6.96675557	     -1.63130359	     70.25602289	     88.22995836	    -18.12266032	      9.16016666
      1.30000000	     -1.64887913	    -10.60910853	     85.66548113	      0.10916162	      1.00643885	      0.35571392	     19.23509021	      0.19963405	    -10.81345462	     17.79387077	      0.31056163	     41.83632127	     15.51850800	      0.00000000	     18.20650761	     -1.44022855	    -10.42891458	     16.54102923	      0.28869542	     40.24617770	     16.87577421	      0.00000000	     -0.24446300	      0.36604187	     -0.15998636	     -0.45399223	      0.48683569	     -0.16998551	     -0.40162826	      0.88999421	     -0.16998551	     -0.27939676	      0.88999421	     -0.13998806	     -0.22700834	      0.74643259	     -0.12998892	     -0.13968616	      0.56699886	     -0.11998977	     -1.74617473	      4.14073888	     -0.88979613	      0.00000000	      0.00000000	     17.10503340	     -3.15394277	      0.82446496	      9.72751185	    -12.55033250	      0.36812350	     79.13896554	     62.87957470	     -2.55851283	     16.32912414	     13.66731462	     -7.06496484	     -0.03411716	     69.61157991	     88.19221186	    -20.98166498	      7.71326197
      1.31666667	     -1.74693202	    -10.46826473	     85.68941899	      0.10889797	      1.00653406	      0.35590263	     19.08863785	      0.06106674	    -10.86678556	     17.74930579	      0.30978383	     42.05203621	     15.58420314	      0.00000000	     18.08161472	     -1.33581771	    -10.25882421	     16.55090869	      0.28886785	     40.43562022	     16.95060037	      0.00000000	     -0.24807166	      0.35796610	     -0.11008004	     -0.46069388	      0.47609492	     -0.11696004	     -0.40755693	      0.87035878	     -0.11696004	     -0.28352110	      0.87035878	     -0.09632004	     -0.23035934	      0.72996448	     -0.08944003	     -0.14174815	      0.55448949	     -0.08256003	     -1.77195106	      4.04938415	     -0.61223217	      0.00000000	      0.00000000	     16.19804496	     -2.97916950	      0.87167800	      9.73614296	    -12.60449104	      0.31819293	     78.28693763	     63.45656717	     -2.48915263	     15.87490029	     13.67509770	     -6.82494981	      0.15550785	     69.22377749	     88.28876377	    -21.18495127	      7.66402106
      1.33333333	     -2.09527142	    -10.39694349	     85.59548520	      0.10934803	      1.00659550	      0.35595742	     19.02313137	     -0.28965515	    -11.04357376	     17.65246180	      0.30809358	     42.32549927	     15.97044383	      0.00000000	     17.90819741	     -1.01516878	    -10.20446387	     16.27099381	      0.28398241	     40.47609958	     16.96223281	      0.00000000	     -0.25026515	      0.30720308	     -0.06516050	     -0.46476741	      0.40858010	     -0.06923303	     -0.41116062	      0.74693358	     -0.06923303	     -0.28602804	      0.74693358	     -0.05701544	     -0.23239622	      0.62644853	     -0.05294290	     -0.14300151	      0.47585758	     -0.04887037	     -1.78761895	      3.47514272	     -0.36240314	      0.00000000	      0.00000000	     15.47989839	     -2.34895967	      0.59416363	      9.71627726	    -12.33304580	      0.23276943	     77.06891778	     66.21076625	     -1.93321779	     13.81852379	     13.75373636	     -7.00366804	      0.73626921	     68.99727908	     88.38480052	    -21.95856161	      7.18968182
      1.35000000	     -2.44789984	    -10.43169476	     85.44416903	      0.10983303	      1.00648690	      0.35605524	     19.15631003	     -0.61724453	    -11.04350686	     17.65562078	      0.30814871	     42.61034794	     16.24421938	      0.00000000	     17.93096102	     -0.73492787	    -10.29936855	     16.15868494	      0.28202225	     40.61860658	     17.00463007	      0.00000000	     -0.25115290	      0.26206194	     -0.02909862	     -0.46641604	      0.34854239	     -0.03091729	     -0.41261909	      0.63717741	     -0.03091729	     -0.28704264	      0.63717741	     -0.02546130	     -0.23322058	      0.53439672	     -0.02364263	     -0.14350876	      0.40593395	     -0.02182397	     -1.79396002	      2.96449712	     -0.16183782	      0.00000000	      0.00000000	     14.98812043	     -1.99023912	      0.37704355	      9.72800401	    -12.01330399	      0.05439005	     76.16256179	     68.60583671	     -1.81084604	     12.78645846	     13.84748430	     -7.08589596	      0.95323232	     68.93961705	     88.51786429	    -22.09952223	      7.15777505
      1.36666667	     -2.75790398	    -10.57899358	     85.24959628	      0.11038187	      1.00625079	      0.35599902	     19.40111353	     -0.86374491	    -10.96312157	     17.60470224	      0.30726002	     42.83161067	     16.46993866	      0.00000000	     18.03929489	     -0.51979359	    -10.48623659	     15.98247352	      0.27894679	     40.76477068	     17.07753987	      0.00000000	     -0.24914005	      0.22593065	     -0.00192131	     -0.46267798	      0.30048777	     -0.00204140	     -0.40931218	      0.54932779	     -0.00204140	     -0.28474216	      0.54932779	     -0.00168115	     -0.23135145	      0.46071779	     -0.00156107	     -0.14235862	      0.34996658	     -0.00144099	     -1.77958244	      2.55577274	     -0.01068577	      0.00000000	      0.00000000	     14.84603389	     -1.79523806	      0.21297642	      9.70964955	    -11.77006924	     -0.02730570	     75.42236536	     70.14982390	     -1.66678489	     11.94111069	     13.79421019	     -7.12013032	      0.92896096	     69.11295869	     88.64770632	    -21.86669365	      7.07375923
      1.38333333	     -2.82030202	    -10.67705308	     85.28299368	      0.11045118	      1.00607437	      0.35579793	     19.52577646	     -0.91803149	    -10.94808097	     17.50618309	      0.30554053	     42.97263432	     16.48026753	      0.00000000	     18.14336821	     -0.48374578	    -10.48105234	     15.91077320	      0.27769538	     40.94924583	     17.08269487	      0.00000000	     -0.26796373	      0.22531066	      0.00867199	     -0.49763544	      0.29966318	      0.00921399	     -0.44023761	      0.54782034	      0.00921399	     -0.30625575	      0.54782034	      0.00758799	     -0.24883112	      0.45945350	      0.00704599	     -0.15311447	      0.34900621	      0.00650399	     -1.91403812	      2.54875924	      0.04823102	      0.00000000	      0.00000000	     14.91889974	     -1.83497684	      0.23377903	      9.61475319	    -11.85388213	     -0.09877549	     75.11934018	     70.19805827	     -1.71564792	     11.95704781	     13.76421135	     -7.00088161	      1.02157210	     69.30396900	     88.70582044	    -21.82940006	      7.02232250
